<mxfile host="65bd71144e">
    <diagram id="lZExmTqpAr0ocWliqW19" name="Page-1">
        <mxGraphModel dx="4000" dy="1334" grid="0" gridSize="10" guides="1" tooltips="1" connect="1" arrows="1" fold="1" page="1" pageScale="1" pageWidth="1654" pageHeight="2336" math="0" shadow="0">
            <root>
                <mxCell id="0"/>
                <mxCell id="1" parent="0"/>
                <mxCell id="21" value="TrieNode" style="swimlane;fontStyle=1;align=center;verticalAlign=top;childLayout=stackLayout;horizontal=1;startSize=26;horizontalStack=0;resizeParent=1;resizeParentMax=0;resizeLast=0;collapsible=1;marginBottom=0;hachureGap=4;fontFamily=Comic Sans MS;fontSize=20;swimlaneFillColor=default;gradientColor=none;rounded=1;swimlaneLine=1;glass=1;shadow=0;movable=1;resizable=1;rotatable=1;deletable=1;editable=1;connectable=1;fillColor=default;" parent="1" vertex="1">
                    <mxGeometry x="-860" y="134" width="750" height="398" as="geometry"/>
                </mxCell>
                <mxCell id="22" value="# key_char_: char" style="text;align=left;verticalAlign=top;spacingLeft=4;spacingRight=4;overflow=hidden;rotatable=0;points=[[0,0.5],[1,0.5]];portConstraint=eastwest;hachureGap=4;fontFamily=Comic Sans MS;fontSize=20;swimlaneFillColor=none;glass=0;rounded=1;shadow=0;fillColor=none;movable=0;resizable=0;deletable=0;editable=0;connectable=0;sketch=1;curveFitting=1;jiggle=2;" parent="21" vertex="1">
                    <mxGeometry y="26" width="750" height="26" as="geometry"/>
                </mxCell>
                <mxCell id="28" value="# children_: unordered_map&lt; char, unique_ptr&lt; TriNode&gt;&gt;" style="text;align=left;verticalAlign=top;spacingLeft=4;spacingRight=4;overflow=hidden;rotatable=0;points=[[0,0.5],[1,0.5]];portConstraint=eastwest;hachureGap=4;fontFamily=Comic Sans MS;fontSize=20;swimlaneFillColor=none;glass=0;rounded=1;shadow=0;fillColor=none;movable=0;resizable=0;deletable=0;editable=0;connectable=0;sketch=1;curveFitting=1;jiggle=2;" parent="21" vertex="1">
                    <mxGeometry y="52" width="750" height="26" as="geometry"/>
                </mxCell>
                <mxCell id="27" value="# is_end_: bool = false" style="text;align=left;verticalAlign=top;spacingLeft=4;spacingRight=4;overflow=hidden;rotatable=0;points=[[0,0.5],[1,0.5]];portConstraint=eastwest;hachureGap=4;fontFamily=Comic Sans MS;fontSize=20;swimlaneFillColor=none;glass=0;rounded=1;shadow=0;fillColor=none;movable=0;resizable=0;deletable=0;editable=0;connectable=0;sketch=1;curveFitting=1;jiggle=2;" parent="21" vertex="1">
                    <mxGeometry y="78" width="750" height="26" as="geometry"/>
                </mxCell>
                <mxCell id="23" value="" style="line;strokeWidth=1;fillColor=none;align=left;verticalAlign=middle;spacingTop=-1;spacingLeft=3;spacingRight=3;rotatable=0;labelPosition=right;points=[];portConstraint=eastwest;strokeColor=inherit;hachureGap=4;fontFamily=Architects Daughter;fontSource=https%3A%2F%2Ffonts.googleapis.com%2Fcss%3Ffamily%3DArchitects%2BDaughter;fontSize=20;swimlaneFillColor=none;movable=0;resizable=0;deletable=0;editable=0;connectable=0;rounded=1;sketch=1;curveFitting=1;jiggle=2;" parent="21" vertex="1">
                    <mxGeometry y="104" width="750" height="8" as="geometry"/>
                </mxCell>
                <mxCell id="81" value="+ ~TrieNode() {virtual}" style="text;strokeColor=#6F0000;fillColor=#a20025;align=left;verticalAlign=top;spacingLeft=4;spacingRight=4;overflow=hidden;rotatable=0;points=[[0,0.5],[1,0.5]];portConstraint=eastwest;hachureGap=4;fontFamily=Comic Sans MS;fontSize=20;swimlaneFillColor=none;fontStyle=2;fontColor=#ffffff;movable=0;resizable=0;deletable=0;editable=0;connectable=0;rounded=1;sketch=1;curveFitting=1;jiggle=2;" vertex="1" parent="21">
                    <mxGeometry y="112" width="750" height="26" as="geometry"/>
                </mxCell>
                <mxCell id="54" value="+ TrieNode( char)" style="text;strokeColor=none;fillColor=none;align=left;verticalAlign=top;spacingLeft=4;spacingRight=4;overflow=hidden;rotatable=0;points=[[0,0.5],[1,0.5]];portConstraint=eastwest;hachureGap=4;fontFamily=Comic Sans MS;fontSize=20;swimlaneFillColor=none;movable=0;resizable=0;deletable=0;editable=0;connectable=0;rounded=1;sketch=1;curveFitting=1;jiggle=2;" vertex="1" parent="21">
                    <mxGeometry y="138" width="750" height="26" as="geometry"/>
                </mxCell>
                <mxCell id="80" value="+ TrieNode( TrieNode &amp;&amp;)" style="text;strokeColor=none;fillColor=none;align=left;verticalAlign=top;spacingLeft=4;spacingRight=4;overflow=hidden;rotatable=0;points=[[0,0.5],[1,0.5]];portConstraint=eastwest;hachureGap=4;fontFamily=Comic Sans MS;fontSize=20;swimlaneFillColor=none;movable=0;resizable=0;deletable=0;editable=0;connectable=0;rounded=1;sketch=1;curveFitting=1;jiggle=2;" vertex="1" parent="21">
                    <mxGeometry y="164" width="750" height="26" as="geometry"/>
                </mxCell>
                <mxCell id="83" value="+ HasChild( char): bool" style="text;strokeColor=none;fillColor=none;align=left;verticalAlign=top;spacingLeft=4;spacingRight=4;overflow=hidden;rotatable=0;points=[[0,0.5],[1,0.5]];portConstraint=eastwest;hachureGap=4;fontFamily=Comic Sans MS;fontSize=20;swimlaneFillColor=none;fontStyle=0;movable=0;resizable=0;deletable=0;editable=0;connectable=0;rounded=1;sketch=1;curveFitting=1;jiggle=2;" vertex="1" parent="21">
                    <mxGeometry y="190" width="750" height="26" as="geometry"/>
                </mxCell>
                <mxCell id="84" value="+ HasChildren(): bool" style="text;strokeColor=none;fillColor=none;align=left;verticalAlign=top;spacingLeft=4;spacingRight=4;overflow=hidden;rotatable=0;points=[[0,0.5],[1,0.5]];portConstraint=eastwest;hachureGap=4;fontFamily=Comic Sans MS;fontSize=20;swimlaneFillColor=none;fontStyle=0;movable=0;resizable=0;deletable=0;editable=0;connectable=0;rounded=1;sketch=1;curveFitting=1;jiggle=2;" vertex="1" parent="21">
                    <mxGeometry y="216" width="750" height="26" as="geometry"/>
                </mxCell>
                <mxCell id="85" value="+ IsEndNode(): bool" style="text;strokeColor=none;fillColor=none;align=left;verticalAlign=top;spacingLeft=4;spacingRight=4;overflow=hidden;rotatable=0;points=[[0,0.5],[1,0.5]];portConstraint=eastwest;hachureGap=4;fontFamily=Comic Sans MS;fontSize=20;swimlaneFillColor=none;fontStyle=0;movable=0;resizable=0;deletable=0;editable=0;connectable=0;rounded=1;sketch=1;curveFitting=1;jiggle=2;" vertex="1" parent="21">
                    <mxGeometry y="242" width="750" height="26" as="geometry"/>
                </mxCell>
                <mxCell id="86" value="+ GetKeyChar(): char" style="text;strokeColor=none;fillColor=none;align=left;verticalAlign=top;spacingLeft=4;spacingRight=4;overflow=hidden;rotatable=0;points=[[0,0.5],[1,0.5]];portConstraint=eastwest;hachureGap=4;fontFamily=Comic Sans MS;fontSize=20;swimlaneFillColor=none;fontStyle=0;movable=0;resizable=0;deletable=0;editable=0;connectable=0;rounded=1;sketch=1;curveFitting=1;jiggle=2;" vertex="1" parent="21">
                    <mxGeometry y="268" width="750" height="26" as="geometry"/>
                </mxCell>
                <mxCell id="79" value="+ InsertChildNode( char, unique_ptr&lt;TrieNode&gt; &amp;&amp;): unique_ptr&lt; TrieNode&gt; *" style="text;strokeColor=none;fillColor=none;align=left;verticalAlign=top;spacingLeft=4;spacingRight=4;overflow=hidden;rotatable=0;points=[[0,0.5],[1,0.5]];portConstraint=eastwest;hachureGap=4;fontFamily=Comic Sans MS;fontSize=20;swimlaneFillColor=none;movable=0;resizable=0;deletable=0;editable=0;connectable=0;rounded=1;sketch=1;curveFitting=1;jiggle=2;" vertex="1" parent="21">
                    <mxGeometry y="294" width="750" height="26" as="geometry"/>
                </mxCell>
                <mxCell id="78" value="+ GetChildNode( char): unique_ptr&lt; TrieNode&gt; *" style="text;strokeColor=none;fillColor=none;align=left;verticalAlign=top;spacingLeft=4;spacingRight=4;overflow=hidden;rotatable=0;points=[[0,0.5],[1,0.5]];portConstraint=eastwest;hachureGap=4;fontFamily=Comic Sans MS;fontSize=20;swimlaneFillColor=none;movable=0;resizable=0;deletable=0;editable=0;connectable=0;rounded=1;sketch=1;curveFitting=1;jiggle=2;" vertex="1" parent="21">
                    <mxGeometry y="320" width="750" height="26" as="geometry"/>
                </mxCell>
                <mxCell id="53" value="+ RemoveChildNode( char): void" style="text;strokeColor=none;fillColor=none;align=left;verticalAlign=top;spacingLeft=4;spacingRight=4;overflow=hidden;rotatable=0;points=[[0,0.5],[1,0.5]];portConstraint=eastwest;hachureGap=4;fontFamily=Comic Sans MS;fontSize=20;swimlaneFillColor=none;movable=0;resizable=0;deletable=0;editable=0;connectable=0;rounded=1;sketch=1;curveFitting=1;jiggle=2;" vertex="1" parent="21">
                    <mxGeometry y="346" width="750" height="26" as="geometry"/>
                </mxCell>
                <mxCell id="24" value="+ SetEndNode( bool): void" style="text;strokeColor=none;fillColor=none;align=left;verticalAlign=top;spacingLeft=4;spacingRight=4;overflow=hidden;rotatable=0;points=[[0,0.5],[1,0.5]];portConstraint=eastwest;hachureGap=4;fontFamily=Comic Sans MS;fontSize=20;swimlaneFillColor=none;movable=0;resizable=0;deletable=0;editable=0;connectable=0;rounded=1;sketch=1;curveFitting=1;jiggle=2;" parent="21" vertex="1">
                    <mxGeometry y="372" width="750" height="26" as="geometry"/>
                </mxCell>
                <mxCell id="91" value="TrieNodeWithValue" style="swimlane;fontStyle=1;align=center;verticalAlign=top;childLayout=stackLayout;horizontal=1;startSize=26;horizontalStack=0;resizeParent=1;resizeParentMax=0;resizeLast=0;collapsible=1;marginBottom=0;rounded=1;shadow=0;glass=1;hachureGap=4;strokeColor=default;fontFamily=Comic Sans MS;fontSize=20;fontColor=default;fillColor=default;gradientColor=none;swimlaneFillColor=default;movable=1;resizable=1;rotatable=1;deletable=1;editable=1;connectable=1;" vertex="1" parent="1">
                    <mxGeometry x="-657" y="703" width="350" height="164" as="geometry">
                        <mxRectangle x="-475" y="200" width="230" height="40" as="alternateBounds"/>
                    </mxGeometry>
                </mxCell>
                <mxCell id="92" value="- value_: T" style="text;strokeColor=none;fillColor=none;align=left;verticalAlign=top;spacingLeft=4;spacingRight=4;overflow=hidden;rotatable=0;points=[[0,0.5],[1,0.5]];portConstraint=eastwest;rounded=1;shadow=0;glass=1;hachureGap=4;fontFamily=Comic Sans MS;fontSize=20;fontColor=default;startSize=26;sketch=1;curveFitting=1;jiggle=2;movable=0;resizable=0;deletable=0;editable=0;connectable=0;" vertex="1" parent="91">
                    <mxGeometry y="26" width="350" height="26" as="geometry"/>
                </mxCell>
                <mxCell id="93" value="" style="line;strokeWidth=1;fillColor=none;align=left;verticalAlign=middle;spacingTop=-1;spacingLeft=3;spacingRight=3;rotatable=0;labelPosition=right;points=[];portConstraint=eastwest;strokeColor=inherit;rounded=1;shadow=0;glass=1;hachureGap=4;fontFamily=Architects Daughter;fontSource=https%3A%2F%2Ffonts.googleapis.com%2Fcss%3Ffamily%3DArchitects%2BDaughter;fontSize=20;fontColor=default;startSize=26;movable=0;resizable=0;deletable=0;editable=0;connectable=0;" vertex="1" parent="91">
                    <mxGeometry y="52" width="350" height="8" as="geometry"/>
                </mxCell>
                <mxCell id="100" value="+ ~TrideWithValue() {virtual}" style="text;strokeColor=#6F0000;fillColor=#a20025;align=left;verticalAlign=top;spacingLeft=4;spacingRight=4;overflow=hidden;rotatable=0;points=[[0,0.5],[1,0.5]];portConstraint=eastwest;rounded=1;shadow=0;glass=0;hachureGap=4;fontFamily=Comic Sans MS;fontSize=20;fontColor=#ffffff;startSize=26;sketch=1;curveFitting=1;jiggle=2;movable=0;resizable=0;deletable=0;editable=0;connectable=0;" vertex="1" parent="91">
                    <mxGeometry y="60" width="350" height="26" as="geometry"/>
                </mxCell>
                <mxCell id="94" value="+ TrideWithValue(TrieNode &amp;&amp;, T)" style="text;strokeColor=none;fillColor=none;align=left;verticalAlign=top;spacingLeft=4;spacingRight=4;overflow=hidden;rotatable=0;points=[[0,0.5],[1,0.5]];portConstraint=eastwest;rounded=1;shadow=0;glass=1;hachureGap=4;fontFamily=Comic Sans MS;fontSize=20;fontColor=default;startSize=26;sketch=1;curveFitting=1;jiggle=2;movable=0;resizable=0;deletable=0;editable=0;connectable=0;" vertex="1" parent="91">
                    <mxGeometry y="86" width="350" height="26" as="geometry"/>
                </mxCell>
                <mxCell id="99" value="+ TrideWithValue(char, T)" style="text;strokeColor=none;fillColor=none;align=left;verticalAlign=top;spacingLeft=4;spacingRight=4;overflow=hidden;rotatable=0;points=[[0,0.5],[1,0.5]];portConstraint=eastwest;rounded=1;shadow=0;glass=1;hachureGap=4;fontFamily=Comic Sans MS;fontSize=20;fontColor=default;startSize=26;sketch=1;curveFitting=1;jiggle=2;movable=0;resizable=0;deletable=0;editable=0;connectable=0;" vertex="1" parent="91">
                    <mxGeometry y="112" width="350" height="26" as="geometry"/>
                </mxCell>
                <mxCell id="102" value="+ GetValue(): T" style="text;strokeColor=none;fillColor=none;align=left;verticalAlign=top;spacingLeft=4;spacingRight=4;overflow=hidden;rotatable=0;points=[[0,0.5],[1,0.5]];portConstraint=eastwest;rounded=1;shadow=0;glass=1;hachureGap=4;fontFamily=Comic Sans MS;fontSize=20;fontColor=default;startSize=26;sketch=1;curveFitting=1;jiggle=2;movable=0;resizable=0;deletable=0;editable=0;connectable=0;" vertex="1" parent="91">
                    <mxGeometry y="138" width="350" height="26" as="geometry"/>
                </mxCell>
                <mxCell id="96" value="PUblic" style="endArrow=block;endSize=16;endFill=0;html=1;hachureGap=4;fontFamily=Architects Daughter;fontSource=https%3A%2F%2Ffonts.googleapis.com%2Fcss%3Ffamily%3DArchitects%2BDaughter;fontSize=20;fontColor=default;shadow=0;rounded=1;sketch=1;curveFitting=1;jiggle=2;exitX=0.5;exitY=0;exitDx=0;exitDy=0;entryX=0.5;entryY=1;entryDx=0;entryDy=0;strokeWidth=3;" edge="1" parent="1" source="91" target="21">
                    <mxGeometry width="160" relative="1" as="geometry">
                        <mxPoint x="-250" y="360" as="sourcePoint"/>
                        <mxPoint x="-510" y="390" as="targetPoint"/>
                    </mxGeometry>
                </mxCell>
                <mxCell id="98" style="edgeStyle=none;sketch=1;hachureGap=4;jiggle=2;curveFitting=1;html=1;exitX=0;exitY=0;exitDx=500;exitDy=42.5;exitPerimeter=0;entryX=0;entryY=0.5;entryDx=0;entryDy=0;fontFamily=Comic Sans MS;fontSource=https%3A%2F%2Ffonts.googleapis.com%2Fcss%3Ffamily%3DArchitects%2BDaughter;fontSize=20;fontColor=default;startSize=26;" edge="1" parent="1" source="97" target="91">
                    <mxGeometry relative="1" as="geometry"/>
                </mxCell>
                <mxCell id="97" value="&lt;font style=&quot;font-size: 19px;&quot;&gt;TrieNodeWithValue是一个类模板。其中 T 是类型参数。&lt;/font&gt;" style="shape=note2;boundedLbl=1;whiteSpace=wrap;html=1;size=25;verticalAlign=top;align=left;rounded=1;shadow=0;glass=1;sketch=1;hachureGap=4;jiggle=2;curveFitting=1;fontFamily=Comic Sans MS;fontSize=20;startSize=26;fillColor=#008a00;strokeColor=#005700;fontColor=#ffffff;" vertex="1" parent="1">
                    <mxGeometry x="-1215" y="728" width="500" height="60" as="geometry"/>
                </mxCell>
                <mxCell id="111" value="Trie" style="swimlane;fontStyle=1;align=center;verticalAlign=top;childLayout=stackLayout;horizontal=1;startSize=26;horizontalStack=0;resizeParent=1;resizeParentMax=0;resizeLast=0;collapsible=1;marginBottom=0;rounded=1;shadow=0;glass=1;hachureGap=4;strokeColor=default;fontFamily=Comic Sans MS;fontSize=20;fontColor=default;fillColor=default;gradientColor=none;movable=1;resizable=1;rotatable=1;deletable=1;editable=1;connectable=1;" vertex="1" parent="1">
                    <mxGeometry x="-1528" y="238" width="370" height="190" as="geometry"/>
                </mxCell>
                <mxCell id="112" value="- root_: unique_ptr&lt;TriNode&gt;" style="text;strokeColor=none;fillColor=none;align=left;verticalAlign=top;spacingLeft=4;spacingRight=4;overflow=hidden;rotatable=0;points=[[0,0.5],[1,0.5]];portConstraint=eastwest;rounded=1;shadow=0;glass=1;hachureGap=4;fontFamily=Comic Sans MS;fontSize=20;fontColor=default;startSize=26;movable=0;resizable=0;deletable=0;editable=0;connectable=0;" vertex="1" parent="111">
                    <mxGeometry y="26" width="370" height="26" as="geometry"/>
                </mxCell>
                <mxCell id="115" value="- latch_: ReaderWriterLatch" style="text;strokeColor=none;fillColor=none;align=left;verticalAlign=top;spacingLeft=4;spacingRight=4;overflow=hidden;rotatable=0;points=[[0,0.5],[1,0.5]];portConstraint=eastwest;rounded=1;shadow=0;glass=1;hachureGap=4;fontFamily=Comic Sans MS;fontSize=20;fontColor=default;startSize=26;movable=0;resizable=0;deletable=0;editable=0;connectable=0;" vertex="1" parent="111">
                    <mxGeometry y="52" width="370" height="26" as="geometry"/>
                </mxCell>
                <mxCell id="113" value="" style="line;strokeWidth=1;fillColor=none;align=left;verticalAlign=middle;spacingTop=-1;spacingLeft=3;spacingRight=3;rotatable=0;labelPosition=right;points=[];portConstraint=eastwest;strokeColor=inherit;rounded=1;shadow=0;glass=1;hachureGap=4;fontFamily=Comic Sans MS;fontSize=20;fontColor=default;startSize=26;movable=0;resizable=0;deletable=0;editable=0;connectable=0;" vertex="1" parent="111">
                    <mxGeometry y="78" width="370" height="8" as="geometry"/>
                </mxCell>
                <mxCell id="114" value="+ Trie()" style="text;strokeColor=none;fillColor=none;align=left;verticalAlign=top;spacingLeft=4;spacingRight=4;overflow=hidden;rotatable=0;points=[[0,0.5],[1,0.5]];portConstraint=eastwest;rounded=1;shadow=0;glass=1;hachureGap=4;fontFamily=Comic Sans MS;fontSize=20;fontColor=default;startSize=26;movable=0;resizable=0;deletable=0;editable=0;connectable=0;" vertex="1" parent="111">
                    <mxGeometry y="86" width="370" height="26" as="geometry"/>
                </mxCell>
                <mxCell id="116" value="+ Insert(const string &amp;, T): bool" style="text;strokeColor=none;fillColor=none;align=left;verticalAlign=top;spacingLeft=4;spacingRight=4;overflow=hidden;rotatable=0;points=[[0,0.5],[1,0.5]];portConstraint=eastwest;rounded=1;shadow=0;glass=1;hachureGap=4;fontFamily=Comic Sans MS;fontSize=20;fontColor=default;startSize=26;movable=0;resizable=0;deletable=0;editable=0;connectable=0;" vertex="1" parent="111">
                    <mxGeometry y="112" width="370" height="26" as="geometry"/>
                </mxCell>
                <mxCell id="119" value="+ Remove(const string &amp;): bool" style="text;strokeColor=none;fillColor=none;align=left;verticalAlign=top;spacingLeft=4;spacingRight=4;overflow=hidden;rotatable=0;points=[[0,0.5],[1,0.5]];portConstraint=eastwest;rounded=1;shadow=0;glass=1;hachureGap=4;fontFamily=Comic Sans MS;fontSize=20;fontColor=default;startSize=26;movable=0;resizable=0;deletable=0;editable=0;connectable=0;" vertex="1" parent="111">
                    <mxGeometry y="138" width="370" height="26" as="geometry"/>
                </mxCell>
                <mxCell id="120" value="+ GetValue(const string &amp;, bool *): T" style="text;strokeColor=none;fillColor=none;align=left;verticalAlign=top;spacingLeft=4;spacingRight=4;overflow=hidden;rotatable=0;points=[[0,0.5],[1,0.5]];portConstraint=eastwest;rounded=1;shadow=0;glass=1;hachureGap=4;fontFamily=Comic Sans MS;fontSize=20;fontColor=default;startSize=26;movable=0;resizable=0;deletable=0;editable=0;connectable=0;" vertex="1" parent="111">
                    <mxGeometry y="164" width="370" height="26" as="geometry"/>
                </mxCell>
                <mxCell id="118" style="edgeStyle=none;sketch=1;hachureGap=4;jiggle=2;curveFitting=1;html=1;exitX=0.5;exitY=1;exitDx=0;exitDy=0;exitPerimeter=0;entryX=0.5;entryY=0;entryDx=0;entryDy=0;fontFamily=Comic Sans MS;fontSource=https%3A%2F%2Ffonts.googleapis.com%2Fcss%3Ffamily%3DArchitects%2BDaughter;fontSize=20;fontColor=default;startSize=26;movable=1;resizable=1;rotatable=1;deletable=1;editable=1;connectable=1;strokeWidth=1;" edge="1" parent="1" source="117" target="111">
                    <mxGeometry relative="1" as="geometry"/>
                </mxCell>
                <mxCell id="117" value="&lt;font style=&quot;font-size: 19px;&quot;&gt;Insert方法是一个函数模板。其中 T 是类型参数。&lt;br&gt;GetValue方法是一个函数模板。其中 T 是类型参数。&lt;br&gt;&lt;/font&gt;" style="shape=note2;boundedLbl=1;whiteSpace=wrap;html=1;size=25;verticalAlign=top;align=left;rounded=1;shadow=0;glass=1;sketch=1;hachureGap=4;jiggle=2;curveFitting=1;fontFamily=Comic Sans MS;fontSize=20;startSize=26;fillColor=#008a00;strokeColor=#005700;fontColor=#ffffff;" vertex="1" parent="1">
                    <mxGeometry x="-1612" y="80" width="500" height="80" as="geometry"/>
                </mxCell>
                <mxCell id="124" value="" style="endArrow=open;startArrow=none;endFill=0;startFill=0;endSize=8;html=1;verticalAlign=bottom;labelBackgroundColor=none;strokeWidth=3;sketch=1;hachureGap=4;jiggle=2;curveFitting=1;fontFamily=Comic Sans MS;fontSource=https%3A%2F%2Ffonts.googleapis.com%2Fcss%3Ffamily%3DArchitects%2BDaughter;fontSize=20;fontColor=default;exitX=1;exitY=0.5;exitDx=0;exitDy=0;entryX=0;entryY=0.5;entryDx=0;entryDy=0;" edge="1" parent="1" source="111" target="21">
                    <mxGeometry width="160" relative="1" as="geometry">
                        <mxPoint x="-650" y="310" as="sourcePoint"/>
                        <mxPoint x="-510" y="294.40999999999997" as="targetPoint"/>
                    </mxGeometry>
                </mxCell>
            </root>
        </mxGraphModel>
    </diagram>
</mxfile>